<svg width="24.000000" height="24.000000" viewBox="0 0 24 24" fill="none" xmlns="http://www.w3.org/2000/svg" xmlns:xlink="http://www.w3.org/1999/xlink">
	<desc>
			Created with Pixso.
	</desc>
	<defs>
		<clipPath id="clip1_1424">
			<rect id="3 - Bold / check-circle" width="24.000000" height="24.000000" fill="white" fill-opacity="0"/>
		</clipPath>
	</defs>
	<g clip-path="url(#clip1_1424)">
		<path id="check-circle-Bold" d="M16.7 9.29C17.09 9.68 17.09 10.31 16.7 10.7L11.7 15.7C11.51 15.9 11.25 16 11 16C10.74 16 10.48 15.9 10.29 15.7L7.29 12.7C6.9 12.31 6.9 11.68 7.29 11.29C7.68 10.9 8.31 10.9 8.7 11.29L11 13.58L15.29 9.29C15.68 8.9 16.31 8.9 16.7 9.29ZM22 12C22 17.51 17.51 22 12 22C6.48 22 2 17.51 2 12C2 6.48 6.48 2 12 2C17.51 2 22 6.48 22 12ZM20 12C20 7.58 16.41 4 12 4C7.58 4 4 7.58 4 12C4 16.41 7.58 20 12 20C16.41 20 20 16.41 20 12Z" fill="#FFFFFF" fill-opacity="0.800000" fill-rule="evenodd"/>
	</g>
</svg>
