<svg width="32.000000" height="32.000000" viewBox="0 0 32 32" fill="none" xmlns="http://www.w3.org/2000/svg" xmlns:xlink="http://www.w3.org/1999/xlink">
	<desc>
			Created with Pixso.
	</desc>
	<defs>
		<clipPath id="clip1_994">
			<rect id="Frame" width="32.000000" height="32.000000" fill="white" fill-opacity="0"/>
		</clipPath>
	</defs>
	<rect id="Frame" width="32.000000" height="32.000000" fill="#FFFFFF" fill-opacity="0"/>
	<g clip-path="url(#clip1_994)">
		<path id="Vector" d="M0 16.75L0 15.06C0.01 14.95 0.04 14.84 0.05 14.73C0.16 14.03 0.21 13.32 0.37 12.63C1.21 8.77 3.21 5.61 6.37 3.24C10.25 0.34 14.61 -0.62 19.36 0.37C23.18 1.17 26.3 3.18 28.68 6.27C31.25 9.61 32.31 13.41 31.91 17.6C31.59 20.98 30.28 23.97 28.03 26.52C25.55 29.34 22.46 31.09 18.75 31.75C18.15 31.85 17.54 31.91 16.93 32L15.18 32C14.73 31.95 14.27 31.91 13.82 31.84C11.57 31.54 9.41 30.75 7.49 29.52C7.4 29.46 7.3 29.42 7.2 29.41C7.09 29.39 6.98 29.4 6.88 29.44C5.05 30.04 3.22 30.62 1.39 31.2C1.29 31.24 1.19 31.27 1.05 31.31C1.69 29.41 2.3 27.57 2.93 25.73C3.01 25.48 3 25.3 2.84 25.07C1.52 23.19 0.63 21.03 0.25 18.75C0.13 18.09 0.08 17.42 0 16.75ZM21.22 25.02L21.24 24.95C21.43 24.95 21.61 24.94 21.8 24.91C22.06 24.88 22.31 24.82 22.56 24.74C24.81 23.95 25.58 22.87 25.64 20.77C25.65 20.45 25.53 20.23 25.24 20.1C24.05 19.53 22.86 18.94 21.67 18.39C21.04 18.1 20.68 18.22 20.27 18.78C19.97 19.19 19.67 19.6 19.35 20C18.86 20.63 18.52 20.72 17.78 20.42C15.11 19.32 13.13 17.44 11.65 14.99C11.45 14.66 11.48 14.36 11.72 14.08C12.01 13.75 12.29 13.41 12.59 13.1C13.09 12.57 13.21 12.04 12.88 11.34C12.33 10.2 11.88 9.01 11.37 7.85C11.29 7.68 11.12 7.47 10.95 7.43C10.11 7.23 9.24 7.19 8.53 7.76C6.98 9.04 6.5 10.74 6.79 12.69C6.95 13.73 7.37 14.69 7.92 15.58C9.13 17.54 10.6 19.32 12.3 20.88C14.26 22.68 16.57 23.83 19.1 24.56C19.8 24.76 20.51 24.87 21.22 25.02Z" fill="#FFFFFF" fill-opacity="1.000000" fill-rule="nonzero"/>
	</g>
</svg>
